<?xml version="1.0" encoding="utf-8"?>
<!-- Generator: Adobe Illustrator 17.0.0, SVG Export Plug-In . SVG Version: 6.00 Build 0)  -->
<!DOCTYPE svg PUBLIC "-//W3C//DTD SVG 1.1//EN" "http://www.w3.org/Graphics/SVG/1.1/DTD/svg11.dtd">
<svg version="1.1" id="Laag_1" xmlns="http://www.w3.org/2000/svg" xmlns:xlink="http://www.w3.org/1999/xlink" x="0px" y="0px"
	 width="250px" height="40px" viewBox="0 0 250 40" enable-background="new 0 0 250 40" xml:space="preserve">
<path fill="#F90303" stroke="#050505" stroke-miterlimit="10" d="M27,17.5c0-11-13-9-13,0c0,10,13,10.212,13,18.458"/>
<path fill="#F90303" stroke="#050505" stroke-miterlimit="10" d="M26.925,17.5c0.134-11,13.109-8.841,12.999,0.158
	C39.802,27.657,26.801,27.711,26.7,35.956"/>
<g enable-background="new    ">
	<path d="M52.583,22.709c0.308-0.943,0.602-1.849,0.882-2.717s0.528-1.672,0.744-2.41c0.215-0.738,0.386-1.391,0.513-1.959
		c0.126-0.566,0.196-1.018,0.21-1.354c0.082-0.32,0.227-0.577,0.436-0.769s0.45-0.287,0.723-0.287c0.164,0,0.304,0.038,0.42,0.112
		c0.116,0.076,0.21,0.175,0.282,0.298c0.071,0.123,0.125,0.262,0.159,0.415c0.034,0.154,0.051,0.31,0.051,0.467
		c0,0.116-0.007,0.223-0.021,0.318s-0.031,0.188-0.051,0.276c-0.157,0.629-0.345,1.278-0.564,1.948s-0.443,1.349-0.672,2.035
		c-0.229,0.688-0.456,1.376-0.682,2.066s-0.427,1.367-0.605,2.03l-0.185,0.697c-0.096,0.355-0.178,0.694-0.246,1.015
		c-0.068,0.322-0.103,0.582-0.103,0.779c0,0.11,0.021,0.197,0.062,0.262c0.041,0.065,0.12,0.098,0.236,0.098
		c0.28,0,0.608-0.046,0.984-0.139c0.376-0.092,0.766-0.205,1.169-0.338c0.403-0.134,0.805-0.28,1.205-0.441
		c0.399-0.16,0.767-0.313,1.102-0.456c0.178-0.075,0.33-0.14,0.457-0.194c0.126-0.055,0.283-0.122,0.472-0.2
		c0.188-0.079,0.439-0.183,0.753-0.313c0.314-0.129,0.749-0.311,1.302-0.543c0.096-0.034,0.18-0.063,0.251-0.087
		c0.072-0.024,0.139-0.036,0.2-0.036c0.109,0,0.203,0.021,0.282,0.062c0.078,0.041,0.14,0.096,0.185,0.164
		c0.044,0.068,0.077,0.147,0.097,0.235c0.021,0.09,0.031,0.179,0.031,0.268c0,0.15-0.012,0.281-0.036,0.395
		c-0.024,0.112-0.049,0.207-0.077,0.281c-0.082,0.131-0.188,0.248-0.318,0.354c-0.13,0.105-0.267,0.198-0.41,0.276
		c-0.144,0.079-0.284,0.146-0.42,0.2s-0.25,0.096-0.338,0.123c-0.109,0.041-0.255,0.096-0.436,0.164
		c-0.182,0.068-0.378,0.144-0.59,0.226s-0.431,0.166-0.656,0.251c-0.226,0.086-0.438,0.166-0.636,0.241s-0.374,0.142-0.528,0.2
		c-0.153,0.058-0.261,0.097-0.323,0.118c-0.294,0.109-0.621,0.232-0.979,0.369c-0.359,0.137-0.716,0.266-1.072,0.389
		s-0.692,0.228-1.01,0.313c-0.317,0.085-0.583,0.128-0.794,0.128c-0.26,0-0.463-0.021-0.61-0.062
		c-0.147-0.041-0.279-0.098-0.395-0.169c-0.116-0.072-0.234-0.159-0.354-0.262s-0.278-0.215-0.477-0.338
		c-0.178-0.109-0.304-0.26-0.379-0.451s-0.113-0.396-0.113-0.615c0-0.109,0.008-0.236,0.025-0.38s0.04-0.294,0.067-0.451
		s0.058-0.311,0.092-0.462c0.034-0.149,0.072-0.283,0.113-0.399L52.583,22.709z"/>
	<path d="M63.77,24.042c0-0.294,0.079-0.544,0.236-0.749s0.366-0.341,0.625-0.41c0.075-0.149,0.191-0.354,0.349-0.609
		c0.157-0.257,0.352-0.535,0.584-0.836s0.498-0.604,0.794-0.907c0.298-0.305,0.626-0.581,0.984-0.831
		c0.359-0.249,0.745-0.452,1.159-0.609c0.413-0.157,0.853-0.236,1.317-0.236c0.396,0,0.742,0.048,1.036,0.144
		s0.537,0.229,0.728,0.399c0.191,0.172,0.335,0.375,0.431,0.61c0.096,0.236,0.144,0.491,0.144,0.765
		c0,0.232-0.031,0.454-0.092,0.666c-0.096,0.383-0.273,0.718-0.533,1.005s-0.566,0.538-0.917,0.754
		c-0.353,0.215-0.735,0.395-1.148,0.538c-0.414,0.144-0.828,0.264-1.241,0.359s-0.812,0.169-1.194,0.22
		c-0.383,0.052-0.714,0.091-0.995,0.118c-0.062,0.123-0.115,0.278-0.159,0.467c-0.045,0.188-0.067,0.371-0.067,0.549
		c0,0.396,0.157,0.704,0.472,0.922c0.314,0.22,0.749,0.328,1.302,0.328c0.321,0,0.629-0.035,0.923-0.107
		c0.294-0.071,0.572-0.164,0.836-0.276c0.263-0.113,0.511-0.236,0.743-0.369c0.232-0.134,0.444-0.265,0.636-0.396
		c0.246-0.164,0.48-0.302,0.702-0.415c0.222-0.112,0.419-0.169,0.59-0.169s0.28,0.043,0.328,0.128
		c0.048,0.086,0.072,0.177,0.072,0.272c0,0.055-0.002,0.107-0.005,0.158c-0.003,0.052-0.008,0.095-0.015,0.129
		c-0.034,0.178-0.103,0.355-0.205,0.533s-0.232,0.331-0.39,0.461c-0.711,0.561-1.441,0.961-2.189,1.199
		c-0.749,0.239-1.547,0.359-2.395,0.359c-0.164,0-0.357-0.01-0.579-0.031c-0.223-0.02-0.453-0.061-0.692-0.123
		c-0.239-0.061-0.475-0.149-0.708-0.266s-0.439-0.271-0.621-0.462s-0.328-0.427-0.44-0.708c-0.113-0.279-0.169-0.618-0.169-1.015
		c0-0.321,0.044-0.68,0.133-1.077c-0.089-0.013-0.173-0.06-0.251-0.138C63.809,24.307,63.77,24.192,63.77,24.042z M70.188,21.201
		c0.014-0.033,0.021-0.064,0.021-0.092s0-0.058,0-0.092c0-0.186-0.068-0.323-0.205-0.416c-0.137-0.092-0.301-0.139-0.492-0.139
		c-0.301,0-0.597,0.079-0.887,0.236c-0.291,0.157-0.564,0.354-0.82,0.59c-0.257,0.235-0.484,0.488-0.682,0.759
		c-0.198,0.27-0.352,0.515-0.461,0.733c0.492-0.041,0.943-0.108,1.354-0.2c0.41-0.093,0.767-0.209,1.071-0.349
		c0.304-0.141,0.55-0.298,0.738-0.472C70.012,21.586,70.134,21.4,70.188,21.201z"/>
	<path d="M78.597,23.037c-0.137,0-0.291,0.032-0.461,0.098c-0.171,0.064-0.342,0.142-0.513,0.23s-0.335,0.182-0.492,0.277
		s-0.294,0.171-0.41,0.225l-0.933,3.691c-0.034,0.145-0.12,0.254-0.256,0.328C75.394,27.963,75.268,28,75.151,28
		c-0.369,0-0.62-0.073-0.754-0.221c-0.133-0.146-0.2-0.34-0.2-0.579c0-0.103,0.008-0.207,0.026-0.313
		c0.017-0.106,0.039-0.217,0.066-0.333l0.041-0.175c0.041-0.185,0.098-0.417,0.169-0.697c0.072-0.28,0.149-0.576,0.231-0.887
		c0.082-0.312,0.166-0.626,0.251-0.943c0.085-0.318,0.166-0.61,0.241-0.877c0.075-0.26,0.186-0.646,0.333-1.159
		c0.146-0.512,0.311-1.086,0.492-1.723c0.181-0.635,0.369-1.3,0.563-1.994c0.195-0.693,0.38-1.354,0.554-1.984
		c0.175-0.628,0.33-1.188,0.467-1.676c0.137-0.489,0.232-0.85,0.287-1.082c0.062-0.096,0.157-0.174,0.287-0.236
		c0.13-0.061,0.284-0.092,0.461-0.092c0.123,0,0.25,0.016,0.379,0.046c0.13,0.031,0.248,0.079,0.354,0.144
		c0.106,0.065,0.193,0.147,0.262,0.246c0.068,0.1,0.103,0.214,0.103,0.344c0,0.089-0.021,0.195-0.062,0.318
		c-0.41,1.189-0.817,2.421-1.22,3.696c-0.403,1.274-0.769,2.565-1.097,3.87c0.089-0.054,0.253-0.167,0.492-0.338
		s0.504-0.369,0.795-0.595c0.29-0.226,0.583-0.462,0.876-0.708s0.54-0.468,0.738-0.666c0.137-0.137,0.275-0.278,0.416-0.426
		c0.14-0.146,0.273-0.287,0.399-0.42c0.126-0.134,0.238-0.253,0.333-0.359c0.096-0.105,0.171-0.189,0.226-0.251
		c0.13-0.15,0.272-0.275,0.425-0.374c0.154-0.1,0.31-0.148,0.467-0.148c0.15,0,0.287,0.023,0.41,0.071s0.229,0.107,0.318,0.18
		c0.089,0.071,0.157,0.153,0.205,0.246c0.048,0.092,0.072,0.179,0.072,0.261c0,0.104-0.024,0.213-0.072,0.328
		c-0.048,0.117-0.104,0.229-0.169,0.339s-0.135,0.21-0.21,0.303c-0.075,0.092-0.14,0.162-0.195,0.21
		c-0.185,0.164-0.393,0.344-0.625,0.538c-0.232,0.195-0.475,0.394-0.728,0.595c-0.253,0.202-0.511,0.403-0.774,0.605
		c-0.264,0.201-0.518,0.395-0.764,0.579c0.431,0.239,0.785,0.559,1.061,0.959c0.277,0.399,0.498,0.844,0.662,1.333
		c0.164,0.488,0.277,1.003,0.338,1.543s0.092,1.066,0.092,1.579c0,0.041-0.003,0.104-0.01,0.189
		c-0.007,0.086-0.021,0.166-0.041,0.241c-0.034,0.123-0.075,0.236-0.123,0.338c-0.048,0.104-0.111,0.19-0.189,0.262
		c-0.079,0.072-0.175,0.129-0.287,0.17c-0.113,0.041-0.251,0.061-0.416,0.061c-0.157,0-0.291-0.027-0.4-0.082
		s-0.2-0.126-0.271-0.215c-0.072-0.089-0.125-0.188-0.159-0.297s-0.051-0.219-0.051-0.328c0-0.342-0.01-0.696-0.031-1.062
		c-0.021-0.366-0.062-0.72-0.123-1.062s-0.146-0.665-0.251-0.969c-0.106-0.305-0.245-0.565-0.416-0.785
		c-0.123-0.156-0.238-0.279-0.343-0.369c-0.106-0.088-0.234-0.133-0.385-0.133H78.597z"/>
	<path d="M88.717,23.037c-0.137,0-0.291,0.032-0.461,0.098c-0.171,0.064-0.342,0.142-0.513,0.23s-0.335,0.182-0.492,0.277
		s-0.294,0.171-0.41,0.225l-0.933,3.691c-0.034,0.145-0.12,0.254-0.256,0.328C85.515,27.963,85.388,28,85.272,28
		c-0.369,0-0.62-0.073-0.754-0.221c-0.133-0.146-0.2-0.34-0.2-0.579c0-0.103,0.008-0.207,0.026-0.313
		c0.017-0.106,0.039-0.217,0.066-0.333l0.041-0.175c0.041-0.185,0.098-0.417,0.169-0.697c0.072-0.28,0.149-0.576,0.231-0.887
		c0.082-0.312,0.166-0.626,0.251-0.943c0.085-0.318,0.166-0.61,0.241-0.877c0.075-0.26,0.186-0.646,0.333-1.159
		c0.146-0.512,0.311-1.086,0.492-1.723c0.181-0.635,0.369-1.3,0.563-1.994c0.195-0.693,0.38-1.354,0.554-1.984
		c0.175-0.628,0.33-1.188,0.467-1.676c0.137-0.489,0.232-0.85,0.287-1.082c0.062-0.096,0.157-0.174,0.287-0.236
		c0.13-0.061,0.284-0.092,0.461-0.092c0.123,0,0.25,0.016,0.379,0.046c0.13,0.031,0.248,0.079,0.354,0.144
		c0.106,0.065,0.193,0.147,0.262,0.246c0.068,0.1,0.103,0.214,0.103,0.344c0,0.089-0.021,0.195-0.062,0.318
		c-0.41,1.189-0.817,2.421-1.22,3.696c-0.403,1.274-0.769,2.565-1.097,3.87c0.089-0.054,0.253-0.167,0.492-0.338
		s0.504-0.369,0.795-0.595c0.29-0.226,0.583-0.462,0.876-0.708s0.54-0.468,0.738-0.666c0.137-0.137,0.275-0.278,0.416-0.426
		c0.14-0.146,0.273-0.287,0.399-0.42c0.126-0.134,0.238-0.253,0.333-0.359c0.096-0.105,0.171-0.189,0.226-0.251
		c0.13-0.15,0.272-0.275,0.425-0.374c0.154-0.1,0.31-0.148,0.467-0.148c0.15,0,0.287,0.023,0.41,0.071s0.229,0.107,0.318,0.18
		c0.089,0.071,0.157,0.153,0.205,0.246c0.048,0.092,0.072,0.179,0.072,0.261c0,0.104-0.024,0.213-0.072,0.328
		c-0.048,0.117-0.104,0.229-0.169,0.339s-0.135,0.21-0.21,0.303c-0.075,0.092-0.14,0.162-0.195,0.21
		c-0.185,0.164-0.393,0.344-0.625,0.538c-0.232,0.195-0.475,0.394-0.728,0.595c-0.253,0.202-0.511,0.403-0.774,0.605
		c-0.264,0.201-0.518,0.395-0.764,0.579c0.431,0.239,0.785,0.559,1.061,0.959c0.277,0.399,0.498,0.844,0.662,1.333
		c0.164,0.488,0.277,1.003,0.338,1.543s0.092,1.066,0.092,1.579c0,0.041-0.003,0.104-0.01,0.189
		c-0.007,0.086-0.021,0.166-0.041,0.241c-0.034,0.123-0.075,0.236-0.123,0.338c-0.048,0.104-0.111,0.19-0.189,0.262
		c-0.079,0.072-0.175,0.129-0.287,0.17c-0.113,0.041-0.251,0.061-0.416,0.061c-0.157,0-0.291-0.027-0.4-0.082
		s-0.2-0.126-0.271-0.215c-0.072-0.089-0.125-0.188-0.159-0.297s-0.051-0.219-0.051-0.328c0-0.342-0.01-0.696-0.031-1.062
		c-0.021-0.366-0.062-0.72-0.123-1.062s-0.146-0.665-0.251-0.969c-0.106-0.305-0.245-0.565-0.416-0.785
		c-0.123-0.156-0.238-0.279-0.343-0.369c-0.106-0.088-0.234-0.133-0.385-0.133H88.717z"/>
	<path d="M94.388,24.042c0-0.294,0.079-0.544,0.236-0.749s0.366-0.341,0.625-0.41c0.075-0.149,0.191-0.354,0.349-0.609
		c0.157-0.257,0.352-0.535,0.584-0.836s0.498-0.604,0.794-0.907c0.298-0.305,0.626-0.581,0.984-0.831
		c0.359-0.249,0.745-0.452,1.159-0.609c0.413-0.157,0.853-0.236,1.317-0.236c0.396,0,0.742,0.048,1.036,0.144
		s0.537,0.229,0.728,0.399c0.191,0.172,0.335,0.375,0.431,0.61c0.096,0.236,0.144,0.491,0.144,0.765
		c0,0.232-0.031,0.454-0.092,0.666c-0.096,0.383-0.273,0.718-0.533,1.005s-0.566,0.538-0.917,0.754
		c-0.353,0.215-0.735,0.395-1.148,0.538c-0.414,0.144-0.828,0.264-1.241,0.359s-0.812,0.169-1.194,0.22
		c-0.383,0.052-0.714,0.091-0.995,0.118c-0.062,0.123-0.115,0.278-0.159,0.467c-0.045,0.188-0.067,0.371-0.067,0.549
		c0,0.396,0.157,0.704,0.472,0.922c0.314,0.22,0.749,0.328,1.302,0.328c0.321,0,0.629-0.035,0.923-0.107
		c0.294-0.071,0.572-0.164,0.836-0.276c0.263-0.113,0.511-0.236,0.743-0.369c0.232-0.134,0.444-0.265,0.636-0.396
		c0.246-0.164,0.48-0.302,0.702-0.415c0.222-0.112,0.419-0.169,0.59-0.169s0.28,0.043,0.328,0.128
		c0.048,0.086,0.072,0.177,0.072,0.272c0,0.055-0.002,0.107-0.005,0.158c-0.003,0.052-0.008,0.095-0.015,0.129
		c-0.034,0.178-0.103,0.355-0.205,0.533s-0.232,0.331-0.39,0.461c-0.711,0.561-1.441,0.961-2.189,1.199
		c-0.749,0.239-1.547,0.359-2.395,0.359c-0.164,0-0.357-0.01-0.579-0.031c-0.223-0.02-0.453-0.061-0.692-0.123
		c-0.239-0.061-0.475-0.149-0.708-0.266s-0.439-0.271-0.621-0.462s-0.328-0.427-0.44-0.708c-0.113-0.279-0.169-0.618-0.169-1.015
		c0-0.321,0.044-0.68,0.133-1.077c-0.089-0.013-0.173-0.06-0.251-0.138C94.427,24.307,94.388,24.192,94.388,24.042z M100.807,21.201
		c0.014-0.033,0.021-0.064,0.021-0.092s0-0.058,0-0.092c0-0.186-0.068-0.323-0.205-0.416c-0.137-0.092-0.301-0.139-0.492-0.139
		c-0.301,0-0.597,0.079-0.887,0.236c-0.291,0.157-0.564,0.354-0.82,0.59c-0.257,0.235-0.484,0.488-0.682,0.759
		c-0.198,0.27-0.352,0.515-0.461,0.733c0.492-0.041,0.943-0.108,1.354-0.2c0.41-0.093,0.767-0.209,1.071-0.349
		c0.304-0.141,0.55-0.298,0.738-0.472C100.63,21.586,100.752,21.4,100.807,21.201z"/>
	<path d="M105.113,26.943c0.089-0.478,0.191-1.004,0.308-1.578s0.236-1.155,0.359-1.744c0.123-0.587,0.243-1.165,0.359-1.732
		s0.215-1.087,0.297-1.559c-0.007-0.068-0.01-0.128-0.01-0.18c0-0.051,0-0.107,0-0.169c0-0.212,0.014-0.424,0.041-0.636
		s0.065-0.406,0.113-0.584c0.075-0.26,0.159-0.437,0.251-0.528c0.092-0.093,0.241-0.139,0.446-0.139
		c0.198,0,0.357,0.039,0.477,0.118c0.119,0.078,0.213,0.183,0.282,0.313s0.113,0.278,0.133,0.446
		c0.021,0.167,0.031,0.34,0.031,0.518c0,0.096-0.003,0.202-0.01,0.317c-0.007,0.117-0.01,0.209-0.01,0.277
		c0.191-0.198,0.395-0.401,0.61-0.61c0.216-0.208,0.444-0.396,0.688-0.563c0.242-0.168,0.499-0.306,0.769-0.416
		c0.27-0.108,0.552-0.164,0.846-0.164c0.116,0,0.231,0.011,0.343,0.031c0.113,0.021,0.228,0.048,0.344,0.082
		c0.137,0.034,0.278,0.08,0.426,0.139c0.146,0.058,0.289,0.139,0.425,0.24c0.226,0.172,0.416,0.385,0.569,0.642
		c0.154,0.256,0.231,0.518,0.231,0.784c0,0.103-0.021,0.214-0.062,0.333c-0.041,0.12-0.097,0.229-0.169,0.328
		c-0.071,0.1-0.155,0.182-0.251,0.246c-0.096,0.065-0.202,0.098-0.318,0.098s-0.258-0.029-0.425-0.087
		c-0.168-0.059-0.306-0.135-0.416-0.23c-0.048-0.041-0.097-0.1-0.149-0.175c-0.051-0.075-0.099-0.15-0.144-0.226
		s-0.085-0.146-0.123-0.21c-0.038-0.065-0.066-0.108-0.087-0.128c-0.034-0.007-0.072-0.013-0.113-0.016
		c-0.041-0.004-0.079-0.006-0.113-0.006c-0.349,0-0.68,0.09-0.995,0.268s-0.608,0.395-0.882,0.65
		c-0.273,0.257-0.525,0.53-0.753,0.82c-0.229,0.291-0.429,0.553-0.6,0.785c-0.137,0.553-0.289,1.143-0.457,1.769
		c-0.167,0.625-0.333,1.28-0.497,1.964v0.256c0,0.205-0.007,0.414-0.021,0.625c-0.014,0.213-0.055,0.4-0.123,0.564
		c-0.075,0.103-0.183,0.189-0.323,0.262c-0.14,0.071-0.302,0.107-0.487,0.107c-0.287,0-0.502-0.094-0.646-0.282
		c-0.144-0.188-0.215-0.408-0.215-0.661C105.062,27.187,105.079,27.066,105.113,26.943z"/>
	<path d="M130.492,19.448c0.465,0,0.697,0.253,0.697,0.759c0,0.369-0.081,0.661-0.241,0.877c-0.161,0.215-0.382,0.322-0.661,0.322
		c-1.572,0-2.988,0.069-4.246,0.205c-0.581,0.076-1.042,0.113-1.384,0.113c-0.451,0-0.677-0.331-0.677-0.994
		c0-0.219,0.089-0.419,0.267-0.601c0.178-0.181,0.398-0.301,0.661-0.358c0.263-0.059,1.036-0.127,2.317-0.205
		C128.508,19.487,129.596,19.448,130.492,19.448z"/>
	<path d="M148.323,23.037c-0.137,0-0.29,0.032-0.462,0.098c-0.17,0.064-0.342,0.142-0.512,0.23
		c-0.172,0.089-0.336,0.182-0.492,0.277c-0.158,0.096-0.295,0.171-0.41,0.225l-0.934,3.691c-0.034,0.145-0.119,0.254-0.256,0.328
		c-0.137,0.076-0.264,0.113-0.38,0.113c-0.369,0-0.62-0.073-0.754-0.221c-0.133-0.146-0.2-0.34-0.2-0.579
		c0-0.103,0.009-0.207,0.026-0.313c0.017-0.106,0.039-0.217,0.066-0.333l0.041-0.175c0.041-0.185,0.098-0.417,0.169-0.697
		c0.072-0.28,0.148-0.576,0.23-0.887c0.082-0.312,0.166-0.626,0.252-0.943c0.085-0.318,0.166-0.61,0.24-0.877
		c0.076-0.26,0.187-0.646,0.334-1.159c0.146-0.512,0.311-1.086,0.492-1.723c0.181-0.635,0.369-1.3,0.563-1.994
		c0.195-0.693,0.38-1.354,0.554-1.984c0.175-0.628,0.33-1.188,0.467-1.676c0.137-0.489,0.232-0.85,0.287-1.082
		c0.062-0.096,0.157-0.174,0.287-0.236c0.13-0.061,0.283-0.092,0.461-0.092c0.123,0,0.25,0.016,0.38,0.046
		c0.13,0.031,0.247,0.079,0.354,0.144c0.106,0.065,0.193,0.147,0.262,0.246c0.068,0.1,0.103,0.214,0.103,0.344
		c0,0.089-0.021,0.195-0.062,0.318c-0.41,1.189-0.817,2.421-1.22,3.696c-0.404,1.274-0.77,2.565-1.098,3.87
		c0.089-0.054,0.253-0.167,0.492-0.338s0.504-0.369,0.795-0.595c0.29-0.226,0.582-0.462,0.877-0.708
		c0.293-0.246,0.539-0.468,0.738-0.666c0.137-0.137,0.274-0.278,0.415-0.426c0.14-0.146,0.272-0.287,0.399-0.42
		c0.127-0.134,0.238-0.253,0.334-0.359c0.096-0.105,0.17-0.189,0.225-0.251c0.131-0.15,0.272-0.275,0.426-0.374
		c0.154-0.1,0.31-0.148,0.467-0.148c0.15,0,0.287,0.023,0.41,0.071s0.229,0.107,0.318,0.18c0.088,0.071,0.156,0.153,0.205,0.246
		c0.047,0.092,0.071,0.179,0.071,0.261c0,0.104-0.024,0.213-0.071,0.328c-0.049,0.117-0.105,0.229-0.17,0.339
		s-0.135,0.21-0.21,0.303c-0.075,0.092-0.14,0.162-0.194,0.21c-0.186,0.164-0.394,0.344-0.626,0.538
		c-0.232,0.195-0.476,0.394-0.728,0.595c-0.254,0.202-0.512,0.403-0.774,0.605c-0.264,0.201-0.519,0.395-0.765,0.579
		c0.432,0.239,0.785,0.559,1.062,0.959c0.277,0.399,0.497,0.844,0.661,1.333c0.164,0.488,0.277,1.003,0.339,1.543
		s0.093,1.066,0.093,1.579c0,0.041-0.004,0.104-0.011,0.189c-0.007,0.086-0.021,0.166-0.041,0.241
		c-0.034,0.123-0.075,0.236-0.123,0.338c-0.048,0.104-0.111,0.19-0.189,0.262c-0.079,0.072-0.175,0.129-0.287,0.17
		c-0.113,0.041-0.251,0.061-0.415,0.061c-0.158,0-0.291-0.027-0.4-0.082s-0.2-0.126-0.271-0.215
		c-0.072-0.089-0.125-0.188-0.159-0.297s-0.052-0.219-0.052-0.328c0-0.342-0.01-0.696-0.03-1.062
		c-0.021-0.366-0.062-0.72-0.123-1.062s-0.146-0.665-0.251-0.969c-0.106-0.305-0.244-0.565-0.416-0.785
		c-0.123-0.156-0.237-0.279-0.343-0.369c-0.106-0.088-0.234-0.133-0.385-0.133H148.323z"/>
	<path d="M154.24,24.072c0.102-0.416,0.262-0.859,0.477-1.327c0.215-0.469,0.497-0.941,0.846-1.421
		c0.349-0.478,0.768-0.946,1.256-1.404s1.055-0.885,1.697-1.281c0.103-0.063,0.26-0.129,0.472-0.2
		c0.212-0.072,0.431-0.114,0.656-0.128c0.267-0.287,0.626-0.432,1.077-0.432c0.533,0,0.982,0.136,1.348,0.405
		c0.365,0.271,0.668,0.638,0.908,1.103c0.074,0.15,0.145,0.297,0.209,0.441c0.065,0.143,0.12,0.295,0.164,0.456
		c0.045,0.16,0.081,0.333,0.108,0.518s0.041,0.394,0.041,0.626c0,0.54-0.085,1.09-0.257,1.65c-0.17,0.561-0.413,1.107-0.728,1.641
		s-0.696,1.044-1.144,1.533c-0.447,0.488-0.945,0.928-1.492,1.317c-0.369,0.267-0.777,0.474-1.225,0.62
		c-0.448,0.147-0.949,0.221-1.502,0.221c-0.527,0-0.983-0.07-1.369-0.21c-0.387-0.141-0.707-0.34-0.965-0.601
		c-0.256-0.259-0.447-0.57-0.574-0.933c-0.126-0.362-0.189-0.766-0.189-1.21C154.055,25.026,154.117,24.564,154.24,24.072z
		 M155.941,24.206c-0.041,0.157-0.07,0.306-0.086,0.446c-0.018,0.14-0.026,0.275-0.026,0.404c0,0.227,0.028,0.437,0.087,0.631
		c0.059,0.195,0.152,0.362,0.282,0.503c0.13,0.14,0.292,0.249,0.487,0.328c0.195,0.078,0.432,0.118,0.713,0.118
		c0.52,0,1.002-0.132,1.451-0.396c0.447-0.263,0.846-0.593,1.193-0.989c0.35-0.396,0.641-0.822,0.877-1.276
		c0.236-0.455,0.402-0.873,0.498-1.257c0.061-0.238,0.113-0.464,0.158-0.676s0.066-0.407,0.066-0.585s-0.032-0.344-0.098-0.497
		c-0.064-0.154-0.148-0.326-0.25-0.518c-0.063-0.116-0.123-0.238-0.186-0.364c-0.061-0.127-0.115-0.251-0.164-0.374
		c-0.055,0.096-0.112,0.179-0.174,0.251c-0.062,0.071-0.154,0.137-0.277,0.194c-0.123,0.059-0.29,0.111-0.502,0.159
		s-0.488,0.089-0.83,0.123c-0.227,0.075-0.455,0.191-0.688,0.349s-0.46,0.342-0.682,0.554c-0.223,0.212-0.435,0.44-0.637,0.687
		c-0.201,0.246-0.383,0.498-0.543,0.754c-0.16,0.257-0.301,0.508-0.42,0.754C156.073,23.775,155.99,24.001,155.941,24.206z"/>
	<path d="M172.522,19.582c-0.239,0-0.495,0.056-0.769,0.169c-0.273,0.112-0.558,0.265-0.852,0.456s-0.594,0.408-0.897,0.651
		c-0.304,0.242-0.603,0.494-0.897,0.753c-0.15,0.131-0.293,0.248-0.43,0.354c-0.137,0.105-0.273,0.187-0.41,0.241
		c-0.096,0.157-0.197,0.363-0.303,0.62c-0.106,0.256-0.211,0.536-0.313,0.841c-0.104,0.304-0.2,0.615-0.293,0.933
		c-0.092,0.318-0.169,0.614-0.23,0.888c-0.034,0.143-0.062,0.283-0.082,0.42s-0.045,0.282-0.072,0.436
		c-0.027,0.154-0.06,0.32-0.097,0.498c-0.038,0.178-0.084,0.376-0.139,0.594c-0.034,0.131-0.089,0.234-0.164,0.313
		c-0.075,0.078-0.153,0.138-0.235,0.179s-0.161,0.067-0.236,0.077c-0.075,0.011-0.133,0.016-0.174,0.016
		c-0.26,0-0.473-0.062-0.637-0.185s-0.246-0.362-0.246-0.718c0-0.096,0.004-0.196,0.011-0.303c0.007-0.105,0.027-0.224,0.062-0.354
		c0.15-0.649,0.295-1.233,0.436-1.753s0.282-1.002,0.426-1.446s0.289-0.863,0.436-1.256c0.146-0.394,0.298-0.79,0.451-1.189
		c0.154-0.4,0.314-0.813,0.482-1.241c0.167-0.427,0.347-0.9,0.538-1.42c0.041-0.116,0.148-0.214,0.323-0.292
		c0.174-0.079,0.36-0.118,0.559-0.118c0.26,0,0.473,0.059,0.641,0.174c0.168,0.117,0.252,0.284,0.252,0.503
		c0,0.021-0.008,0.059-0.021,0.112c-0.014,0.056-0.033,0.113-0.061,0.175l-0.451,1.066c0.287-0.226,0.586-0.451,0.896-0.677
		s0.631-0.429,0.959-0.61c0.328-0.181,0.658-0.328,0.989-0.44c0.331-0.113,0.658-0.17,0.979-0.17c0.656,0,1.169,0.177,1.538,0.528
		c0.369,0.353,0.554,0.897,0.554,1.636c0,0.424-0.074,0.906-0.221,1.445c-0.146,0.541-0.332,1.12-0.554,1.738
		c-0.222,0.619-0.461,1.269-0.718,1.948c-0.256,0.681-0.494,1.373-0.713,2.077c-0.061,0.191-0.125,0.352-0.189,0.481
		s-0.142,0.234-0.23,0.313c-0.089,0.079-0.193,0.135-0.313,0.169c-0.12,0.034-0.266,0.052-0.436,0.052
		c-0.268,0-0.451-0.05-0.555-0.148c-0.102-0.1-0.153-0.258-0.153-0.478c0-0.19,0.028-0.425,0.087-0.702
		c0.059-0.276,0.141-0.581,0.246-0.912c0.105-0.332,0.229-0.686,0.369-1.062s0.293-0.759,0.457-1.148
		c0.129-0.314,0.258-0.629,0.384-0.943s0.239-0.618,0.339-0.912c0.099-0.294,0.18-0.574,0.24-0.842
		c0.063-0.266,0.093-0.512,0.093-0.738c0-0.211-0.046-0.397-0.139-0.559C172.948,19.662,172.775,19.582,172.522,19.582z"/>
	<path d="M178.307,24.811c0-0.574,0.064-1.17,0.194-1.789c0.13-0.618,0.267-1.211,0.41-1.779c-0.178-0.006-0.358-0.033-0.544-0.082
		c-0.184-0.047-0.352-0.112-0.502-0.194s-0.273-0.183-0.369-0.303c-0.096-0.119-0.144-0.258-0.144-0.415
		c0-0.062,0.014-0.14,0.041-0.236c0.027-0.095,0.066-0.189,0.118-0.281c0.051-0.093,0.117-0.171,0.199-0.236
		c0.082-0.064,0.175-0.098,0.277-0.098h1.374c0.13,0,0.219-0.056,0.267-0.169c0.048-0.112,0.085-0.224,0.113-0.333
		c0.088-0.396,0.172-0.74,0.251-1.03c0.078-0.291,0.145-0.537,0.2-0.738c0.054-0.202,0.097-0.366,0.128-0.492
		c0.03-0.127,0.046-0.228,0.046-0.303c0-0.089-0.004-0.175-0.01-0.257c-0.008-0.082-0.011-0.194-0.011-0.338v-0.103
		c0-0.055,0.005-0.126,0.016-0.216c0.01-0.088,0.042-0.215,0.097-0.379c0.041-0.13,0.116-0.253,0.227-0.369
		c0.108-0.116,0.27-0.174,0.481-0.174c0.185,0,0.342,0.037,0.472,0.112s0.236,0.175,0.318,0.298s0.143,0.263,0.184,0.42
		s0.063,0.314,0.063,0.472c0,0.171-0.018,0.325-0.052,0.462l-0.749,2.871c0.369-0.063,0.697-0.12,0.984-0.175
		s0.574-0.109,0.861-0.164c0.314-0.062,0.587-0.119,0.815-0.175c0.229-0.054,0.426-0.101,0.59-0.138
		c0.164-0.038,0.303-0.068,0.415-0.093c0.113-0.023,0.207-0.035,0.282-0.035c0.109,0,0.221,0.008,0.333,0.025
		c0.113,0.017,0.212,0.046,0.298,0.087c0.085,0.041,0.155,0.1,0.21,0.175s0.082,0.174,0.082,0.297c0,0.164-0.032,0.31-0.098,0.436
		c-0.064,0.127-0.148,0.236-0.251,0.328c-0.103,0.093-0.219,0.168-0.349,0.226c-0.13,0.059-0.26,0.102-0.39,0.128
		c-0.109,0.021-0.251,0.052-0.426,0.093c-0.174,0.041-0.365,0.086-0.574,0.134c-0.208,0.048-0.425,0.099-0.651,0.153
		c-0.225,0.055-0.444,0.109-0.656,0.164c-0.314,0.082-0.582,0.15-0.805,0.205c-0.222,0.055-0.412,0.096-0.568,0.123
		c-0.158,0.027-0.286,0.048-0.385,0.062c-0.1,0.014-0.18,0.021-0.241,0.021c-0.13,0.39-0.243,0.772-0.339,1.148
		s-0.176,0.727-0.24,1.051c-0.065,0.325-0.113,0.615-0.144,0.872c-0.031,0.256-0.046,0.456-0.046,0.6
		c0,0.185,0.017,0.36,0.051,0.528c0.034,0.167,0.092,0.313,0.174,0.436s0.193,0.221,0.334,0.292c0.14,0.072,0.315,0.107,0.527,0.107
		c0.362,0,0.719-0.099,1.066-0.297c0.35-0.198,0.683-0.449,1-0.754c0.318-0.304,0.619-0.637,0.902-1
		c0.284-0.361,0.545-0.707,0.785-1.035c0.082-0.123,0.188-0.185,0.317-0.185c0.041,0,0.091,0.007,0.148,0.021
		c0.059,0.014,0.114,0.038,0.169,0.072s0.102,0.078,0.139,0.133c0.038,0.055,0.057,0.12,0.057,0.195c0,0.055-0.004,0.096-0.01,0.123
		c-0.11,0.424-0.279,0.849-0.508,1.276c-0.229,0.427-0.464,0.856-0.703,1.286c-0.082,0.151-0.189,0.298-0.322,0.441
		c-0.134,0.144-0.279,0.282-0.436,0.415c-0.158,0.134-0.322,0.26-0.492,0.38c-0.172,0.119-0.332,0.228-0.482,0.322
		c-0.26,0.164-0.543,0.277-0.852,0.339c-0.307,0.062-0.604,0.093-0.892,0.093c-0.444,0-0.839-0.081-1.185-0.241
		c-0.345-0.161-0.636-0.38-0.871-0.656c-0.236-0.277-0.416-0.601-0.539-0.97S178.307,25.235,178.307,24.811z"/>
	<path d="M184.663,32.737c-0.28,0-0.49-0.077-0.631-0.23c-0.14-0.154-0.21-0.32-0.21-0.497c0-0.287,0.084-0.535,0.251-0.744
		c0.168-0.208,0.368-0.393,0.601-0.554c0.232-0.16,0.47-0.304,0.712-0.431c0.243-0.126,0.437-0.251,0.579-0.374
		c0.309-0.26,0.581-0.558,0.82-0.892c0.239-0.336,0.428-0.646,0.564-0.934c0.219-0.451,0.426-0.95,0.62-1.497
		c0.195-0.547,0.374-1.112,0.538-1.697c0.164-0.584,0.313-1.177,0.446-1.778c0.134-0.602,0.251-1.183,0.354-1.744
		c0.033-0.164,0.053-0.319,0.056-0.466c0.004-0.147,0.009-0.292,0.016-0.437c0.014-0.354,0.048-0.641,0.103-0.855
		c0.055-0.216,0.132-0.381,0.23-0.498c0.1-0.115,0.219-0.192,0.359-0.23c0.14-0.037,0.303-0.057,0.486-0.057
		c0.383,0,0.649,0.095,0.801,0.282c0.149,0.188,0.225,0.464,0.225,0.825c0,0.199-0.028,0.496-0.087,0.893
		c-0.058,0.396-0.144,0.858-0.256,1.385c-0.113,0.526-0.251,1.097-0.415,1.712s-0.353,1.241-0.564,1.876
		c-0.212,0.637-0.446,1.262-0.702,1.877c-0.257,0.615-0.532,1.186-0.825,1.713c-0.069,0.115-0.149,0.237-0.241,0.363
		c-0.093,0.127-0.19,0.253-0.292,0.38c-0.104,0.126-0.204,0.247-0.303,0.364c-0.1,0.115-0.189,0.222-0.271,0.317
		c-0.274,0.321-0.53,0.602-0.77,0.841s-0.477,0.439-0.713,0.6c-0.235,0.161-0.473,0.282-0.713,0.364
		C185.193,32.696,184.937,32.737,184.663,32.737z M189.995,15.951c0-0.252,0.064-0.471,0.194-0.656
		c0.13-0.184,0.291-0.338,0.482-0.461c0.15-0.096,0.285-0.173,0.405-0.23c0.119-0.059,0.247-0.088,0.384-0.088
		c0.186,0,0.341,0.029,0.467,0.088c0.127,0.058,0.228,0.137,0.303,0.235c0.075,0.1,0.128,0.209,0.159,0.328
		c0.03,0.12,0.046,0.241,0.046,0.364c0,0.246-0.045,0.479-0.133,0.697c-0.09,0.219-0.264,0.431-0.523,0.636
		c-0.096,0.075-0.191,0.135-0.287,0.18c-0.096,0.044-0.195,0.066-0.297,0.066c-0.35,0-0.637-0.103-0.861-0.308
		C190.107,16.598,189.995,16.314,189.995,15.951z"/>
	<path d="M193.133,24.042c0-0.294,0.078-0.544,0.235-0.749s0.366-0.341,0.626-0.41c0.075-0.149,0.191-0.354,0.349-0.609
		c0.157-0.257,0.352-0.535,0.584-0.836s0.498-0.604,0.795-0.907c0.298-0.305,0.626-0.581,0.984-0.831
		c0.359-0.249,0.745-0.452,1.159-0.609c0.413-0.157,0.853-0.236,1.317-0.236c0.396,0,0.741,0.048,1.035,0.144
		s0.537,0.229,0.729,0.399c0.191,0.172,0.335,0.375,0.431,0.61c0.096,0.236,0.144,0.491,0.144,0.765
		c0,0.232-0.031,0.454-0.092,0.666c-0.097,0.383-0.274,0.718-0.533,1.005c-0.261,0.287-0.566,0.538-0.918,0.754
		c-0.353,0.215-0.735,0.395-1.148,0.538c-0.414,0.144-0.827,0.264-1.241,0.359c-0.413,0.096-0.812,0.169-1.194,0.22
		c-0.383,0.052-0.715,0.091-0.994,0.118c-0.063,0.123-0.115,0.278-0.159,0.467c-0.045,0.188-0.067,0.371-0.067,0.549
		c0,0.396,0.157,0.704,0.473,0.922c0.313,0.22,0.748,0.328,1.302,0.328c0.321,0,0.629-0.035,0.923-0.107
		c0.294-0.071,0.572-0.164,0.836-0.276c0.263-0.113,0.511-0.236,0.743-0.369c0.232-0.134,0.444-0.265,0.636-0.396
		c0.246-0.164,0.48-0.302,0.702-0.415c0.223-0.112,0.419-0.169,0.59-0.169s0.28,0.043,0.328,0.128
		c0.048,0.086,0.071,0.177,0.071,0.272c0,0.055-0.001,0.107-0.005,0.158c-0.003,0.052-0.009,0.095-0.015,0.129
		c-0.035,0.178-0.104,0.355-0.205,0.533c-0.104,0.178-0.233,0.331-0.391,0.461c-0.711,0.561-1.44,0.961-2.188,1.199
		c-0.749,0.239-1.547,0.359-2.395,0.359c-0.164,0-0.357-0.01-0.579-0.031c-0.223-0.02-0.453-0.061-0.692-0.123
		c-0.239-0.061-0.476-0.149-0.708-0.266s-0.438-0.271-0.62-0.462c-0.181-0.191-0.328-0.427-0.44-0.708
		c-0.113-0.279-0.17-0.618-0.17-1.015c0-0.321,0.045-0.68,0.134-1.077c-0.089-0.013-0.173-0.06-0.251-0.138
		C193.172,24.307,193.133,24.192,193.133,24.042z M199.552,21.201c0.014-0.033,0.021-0.064,0.021-0.092s0-0.058,0-0.092
		c0-0.186-0.068-0.323-0.205-0.416c-0.137-0.092-0.301-0.139-0.492-0.139c-0.301,0-0.597,0.079-0.887,0.236
		c-0.291,0.157-0.564,0.354-0.82,0.59c-0.257,0.235-0.484,0.488-0.683,0.759c-0.198,0.27-0.352,0.515-0.461,0.733
		c0.492-0.041,0.943-0.108,1.354-0.2c0.41-0.093,0.768-0.209,1.071-0.349c0.305-0.141,0.551-0.298,0.738-0.472
		C199.376,21.586,199.497,21.4,199.552,21.201z"/>
	<path d="M218.368,20.689c0,0.471-0.182,0.88-0.544,1.225c-0.362,0.346-0.776,0.518-1.241,0.518c-0.355,0-0.657-0.124-0.907-0.374
		c-0.249-0.249-0.374-0.552-0.374-0.907c0-0.472,0.189-0.887,0.569-1.246c0.379-0.358,0.798-0.538,1.256-0.538
		c0.355,0,0.651,0.127,0.887,0.38C218.25,19.999,218.368,20.313,218.368,20.689z"/>
	<path d="M228.827,19.582c-0.239,0-0.496,0.056-0.769,0.169c-0.274,0.112-0.558,0.265-0.852,0.456s-0.593,0.408-0.897,0.651
		c-0.304,0.242-0.604,0.494-0.897,0.753c-0.15,0.131-0.294,0.248-0.43,0.354c-0.138,0.105-0.274,0.187-0.41,0.241
		c-0.097,0.157-0.197,0.363-0.303,0.62c-0.106,0.256-0.211,0.536-0.313,0.841c-0.104,0.304-0.2,0.615-0.293,0.933
		c-0.092,0.318-0.169,0.614-0.23,0.888c-0.034,0.143-0.062,0.283-0.082,0.42s-0.045,0.282-0.072,0.436
		c-0.027,0.154-0.06,0.32-0.097,0.498c-0.038,0.178-0.084,0.376-0.139,0.594c-0.034,0.131-0.089,0.234-0.164,0.313
		c-0.075,0.078-0.153,0.138-0.235,0.179s-0.161,0.067-0.236,0.077c-0.075,0.011-0.133,0.016-0.174,0.016
		c-0.261,0-0.473-0.062-0.637-0.185s-0.246-0.362-0.246-0.718c0-0.096,0.004-0.196,0.011-0.303c0.007-0.105,0.027-0.224,0.062-0.354
		c0.15-0.649,0.296-1.233,0.436-1.753c0.141-0.52,0.282-1.002,0.426-1.446s0.289-0.863,0.436-1.256
		c0.147-0.394,0.298-0.79,0.451-1.189c0.154-0.4,0.314-0.813,0.482-1.241c0.167-0.427,0.347-0.9,0.538-1.42
		c0.041-0.116,0.148-0.214,0.323-0.292c0.174-0.079,0.36-0.118,0.559-0.118c0.26,0,0.474,0.059,0.641,0.174
		c0.168,0.117,0.252,0.284,0.252,0.503c0,0.021-0.008,0.059-0.021,0.112c-0.014,0.056-0.034,0.113-0.061,0.175l-0.451,1.066
		c0.287-0.226,0.586-0.451,0.896-0.677c0.312-0.226,0.631-0.429,0.959-0.61c0.328-0.181,0.658-0.328,0.989-0.44
		c0.332-0.113,0.658-0.17,0.979-0.17c0.656,0,1.169,0.177,1.538,0.528c0.369,0.353,0.554,0.897,0.554,1.636
		c0,0.424-0.073,0.906-0.221,1.445c-0.146,0.541-0.331,1.12-0.554,1.738c-0.222,0.619-0.461,1.269-0.718,1.948
		c-0.256,0.681-0.494,1.373-0.713,2.077c-0.061,0.191-0.124,0.352-0.189,0.481c-0.064,0.13-0.142,0.234-0.23,0.313
		c-0.089,0.079-0.193,0.135-0.313,0.169c-0.12,0.034-0.266,0.052-0.436,0.052c-0.268,0-0.451-0.05-0.555-0.148
		c-0.102-0.1-0.153-0.258-0.153-0.478c0-0.19,0.029-0.425,0.087-0.702c0.059-0.276,0.141-0.581,0.246-0.912
		c0.106-0.332,0.229-0.686,0.369-1.062c0.141-0.376,0.293-0.759,0.457-1.148c0.129-0.314,0.258-0.629,0.384-0.943
		c0.127-0.314,0.239-0.618,0.339-0.912c0.099-0.294,0.18-0.574,0.24-0.842c0.063-0.266,0.093-0.512,0.093-0.738
		c0-0.211-0.046-0.397-0.139-0.559C229.253,19.662,229.08,19.582,228.827,19.582z"/>
	<path d="M236.271,13.941c0.034-0.272,0.089-0.525,0.164-0.758s0.177-0.426,0.303-0.58c0.127-0.153,0.289-0.23,0.487-0.23
		c0.109,0,0.23,0.021,0.364,0.062c0.133,0.041,0.26,0.098,0.379,0.169c0.12,0.072,0.221,0.159,0.303,0.262s0.123,0.215,0.123,0.338
		c0,0.056-0.01,0.118-0.031,0.19c-0.02,0.071-0.037,0.142-0.051,0.21l-2.563,10.274c-0.103,0.41-0.188,0.802-0.257,1.174
		c-0.068,0.373-0.119,0.679-0.153,0.918v0.246c0,0.205-0.014,0.429-0.041,0.672c-0.027,0.242-0.079,0.468-0.153,0.677
		c-0.076,0.208-0.18,0.383-0.313,0.522c-0.133,0.141-0.306,0.21-0.518,0.21c-0.185,0-0.346-0.039-0.481-0.117
		c-0.138-0.079-0.25-0.18-0.339-0.303s-0.153-0.255-0.194-0.395c-0.041-0.141-0.063-0.271-0.063-0.395
		c0-0.109,0.011-0.245,0.031-0.405c0.021-0.161,0.046-0.328,0.077-0.503c0.03-0.174,0.063-0.349,0.097-0.522
		c0.034-0.175,0.068-0.326,0.104-0.456l2.645-10.5C236.21,14.469,236.236,14.216,236.271,13.941z"/>
</g>
</svg>
